<svg width="557" height="94" viewBox="0 0 557 94" fill="none" xmlns="http://www.w3.org/2000/svg">
<path d="M48.8177 17.0156C40.6771 17.0156 34.3906 21.0833 29.9531 28.6615V0H0V92.4583H29.9531V82.1042C34.3906 89.6823 40.6771 93.9375 48.8177 93.9375C68.9688 93.9375 80.4375 79.8854 80.4375 55.474C80.4375 30.8802 68.9688 17.0156 48.8177 17.0156ZM40.125 69.7135C33.651 69.7135 29.9531 64.5365 29.9531 55.474C29.9531 46.2292 33.651 41.0521 40.125 41.0521C46.9688 41.0521 50.849 46.2292 50.849 55.474C50.849 64.5365 46.9688 69.7135 40.125 69.7135Z" fill="#CA752B"/>
<path d="M169.579 18.4948H139.438V28.6615C135.183 21.0833 128.715 17.0156 120.579 17.0156C100.423 17.0156 89.1416 30.8802 89.1416 55.474C89.1416 79.8854 100.423 93.9375 120.579 93.9375C128.715 93.9375 135.183 89.6823 139.438 82.1042V92.4583H169.579V18.4948ZM129.267 69.7135C122.428 69.7135 118.73 64.5365 118.73 55.474C118.73 46.2292 122.428 41.0521 129.267 41.0521C135.928 41.0521 139.438 46.2292 139.438 55.474C139.438 64.5365 135.928 69.7135 129.267 69.7135Z" fill="#1E463F"/>
<path d="M252.424 70.2712C251.496 85.2451 238.366 93.9378 215.991 93.9378C193.986 93.9378 181.601 82.4743 181.601 61.9482V2.77637H211.554V23.8545H226.72V46.0472H211.554V56.4014C211.554 64.9066 215.252 69.7139 221.538 69.7139C226.72 69.7139 229.861 66.568 230.231 61.2087L252.424 70.2712Z" fill="#1E463F"/>
<path d="M339.517 64.9063C336.371 83.3958 322.132 93.9375 299.757 93.9375C274.054 93.9375 259.632 79.8854 259.632 55.474C259.632 30.8802 274.054 17.0156 299.757 17.0156C322.319 17.0156 336.559 27.3698 339.517 45.8594L311.038 50.6667C309.746 44.5677 305.861 41.0521 299.757 41.0521C293.101 41.0521 289.22 46.2292 289.22 55.474C289.22 64.5365 293.101 69.7135 299.757 69.7135C305.861 69.7135 309.746 66.1979 311.038 60.099L339.517 64.9063Z" fill="#1E463F"/>
<path d="M401.461 17.0156C391.659 17.1979 384.263 21.6354 379.825 30.1406V0H349.872V92.4583H379.825V55.8438C381.674 46.9688 385.56 41.9792 390.737 41.9792C396.841 41.9792 400.169 48.8177 400.169 61.0208V92.4583H430.31V50.4844C430.31 29.2188 419.955 17.0156 401.461 17.0156Z" fill="#1E463F"/>
<rect x="25" y="33" width="39" height="44" fill="#CA752B"/>
<path d="M508.867 91.9584H515.304C515.91 91.9584 516.563 91.9168 517.123 91.9168C517.169 91.9168 517.169 91.9168 517.169 91.9168C517.682 91.9584 518.195 91.9584 518.708 91.9584C532.794 91.9584 546.692 81.8937 552.802 71.4963C553.828 69.7079 554.715 67.7948 555.414 65.8401C556.44 62.8457 557 59.6433 557 56.3161C557 51.7828 555.974 47.4575 554.108 43.5481C552.196 38.5573 548.511 33.4834 541.795 28.9501C530.228 21.1312 535.359 9.27819 535.359 9.27819C533.866 9.02865 532.421 8.90388 530.975 8.90388C520.061 8.90388 510.64 18.8022 509.427 27.6192C509.287 28.4094 509.24 29.1996 509.24 30.0314C509.24 33.525 510.779 36.3946 512.972 39.098C517.496 42.6747 521.087 47.1664 523.232 52.2403C524.119 54.2782 524.725 56.3993 525.145 58.6035C525.471 60.3919 525.658 62.2634 525.658 64.1765C525.704 75.7385 518.988 86.0527 508.867 91.9584ZM439 52.6978C439 52.7394 439 52.781 439 52.8226C439 52.9057 439 52.9473 439 52.9889C439 55.4427 441.239 57.439 443.991 57.439H452.712C454.018 58.354 455.324 59.3937 456.723 60.3503C457.143 60.6414 457.563 60.8909 457.983 61.1405C458.449 61.4732 458.915 61.7227 459.428 61.9723C459.802 62.097 460.175 62.305 460.501 62.4298C461.76 62.9288 463.066 63.2616 464.466 63.2616C464.559 63.2616 464.606 63.2616 464.745 63.2616C465.165 63.2616 465.632 63.22 466.051 63.1784C470.016 62.8041 471.928 60.683 473.7 57.6885C473.747 57.6469 473.794 57.6054 473.84 57.5638C475.1 56.2329 476.219 55.5259 477.152 55.1932C480.23 53.4464 483.868 52.3651 487.739 52.3235L487.459 54.0286C477.711 54.3198 469.876 61.4316 469.876 70.207C469.876 75.1562 472.441 79.6063 476.359 82.5592C473.281 82.975 470.669 84.597 469.036 86.8013C468.523 87.5083 468.104 88.3401 467.777 89.1719C467.451 90.0453 467.264 91.0434 467.264 92H469.503H471.928H477.618H488.672H502.757C510.406 88.756 516.796 83.1414 520.108 76.1959C521.507 73.3262 522.393 70.1654 522.719 66.9214C523.046 65.1747 523.186 63.3447 523.186 61.5564C523.186 53.8207 513.438 37.8087 498.886 34.1488C498.886 34.1488 487.786 30.3641 486.48 29.9067C475.193 25.7477 478.598 20.2163 475.753 16.2653C472.348 11.4824 467.684 11.1081 467.684 11.1081L461.387 4.28743L459.195 2C457.516 2 456.164 7.28189 455.93 11.732C443.151 17.0555 441.285 28.7421 441.285 33.3586C441.285 38.3494 444.224 40.8031 448.561 41.8013C450.52 42.2172 453.225 42.342 455.697 42.342C458.589 42.342 461.061 42.1756 461.061 42.1756C461.061 42.5499 457.656 48.4556 457.656 48.4556H448.235C447.675 48.414 447.022 48.3725 446.462 48.3725C445.903 48.3725 445.343 48.414 444.737 48.4556H443.991C442.591 48.4556 441.332 48.9963 440.399 49.8281C439.793 50.3272 439.42 50.8262 439.326 51.4085C439.093 51.866 439 52.2819 439 52.6978ZM460.408 23.5019C460.408 25.207 458.869 26.6211 456.91 26.6211C454.951 26.6211 453.412 25.2486 453.412 23.5019C453.412 21.7967 454.951 20.3826 456.91 20.3826C458.869 20.3826 460.455 21.7967 460.408 23.5019Z" fill="#1E463F"/>
<path d="M35.2399 55.3764C32.6199 63.8607 38.4847 71.7535 42.1788 72.9603C45.875 74.1671 55.0952 71.199 57.7151 62.7147C59.0788 58.3022 60.1314 54.8943 60.1314 54.8943L37.6561 47.5561C37.6561 47.5561 36.6036 50.9638 35.2399 55.3764ZM49.1842 64.8683C50.3141 63.9738 51.2877 62.762 51.7982 61.1157C52.0206 60.3958 52.7809 60.0021 53.4972 60.2359C54.2135 60.4698 54.6136 61.2424 54.3912 61.9623C53.7 64.2062 52.3454 65.8774 50.8742 67.0364C49.3968 68.1985 47.8075 68.8764 46.4815 69.2083C45.755 69.3878 45.0145 68.9387 44.8263 68.2036C44.6382 67.4684 45.075 66.726 45.801 66.5457C46.7725 66.3067 48.0589 65.7604 49.1842 64.8683Z" fill="white"/>
<path d="M54.5797 39.1543L55.1886 37.1808C55.4606 36.3001 54.9716 35.3558 54.0959 35.0705C53.2215 34.7844 52.2903 35.2656 52.0198 36.1456L51.423 38.0755C44.5475 36.4032 38.8254 39.1919 37.6127 43.1181C37.0771 44.8499 37.0034 45.0908 36.9952 45.1171L62.0408 53.2947C62.049 53.2682 62.1231 53.0283 62.6583 51.2956C63.8473 47.4462 60.8737 41.9259 54.5797 39.1543Z" fill="white"/>
</svg>
